#!OML:ASF H:\Punching\Project 1\Capture day 1\Session 1\female.ASF
:FULLY-SPECIFIED
:DEGREES
3406
root -0.178519 14.5866 -1.06117 19.154 -34.7794 -8.45223
lowerback -4.47027 0.378411 4.05158
upperback -7.70827 0.358154 -0.398143
thorax -5.48123 -0.101247 -2.67855
lowerneck -6.43638 10.6749 19.3231
upperneck 30.5691 15.4426 -11.9349
head 14.0548 7.67568 -5.70213
rclavicle 5.35725e-014 1.35174e-014
rhumerus 12.0569 24.3508 -65.4216
rradius 130.536
rwrist -12.657
rhand -28.5597 7.84578
rfingers 7.12502
rthumb -1.92649 -22.1253
lclavicle 5.35725e-014 1.35174e-014
lhumerus 7.73728 -10.46 54.627
lradius 137.549
lwrist -0.108244
lhand -26.91 1.36384
lfingers 7.12502
lthumb -0.333179 31.3433
rfemur -5.05686 10.412 18.1679
rtibia 25.3191
rfoot -32.216 -25.8322
rtoes -8.34479
lfemur -53.4093 19.6985 -7.55916
ltibia 52.6742
lfoot -6.36349 11.5782
ltoes 7.89431
3407
root -0.20246 14.6014 -1.1223 19.1771 -34.5507 -8.50914
lowerback -4.5455 0.23867 4.19541
upperback -7.75064 0.169752 -0.293058
thorax -5.49994 -0.201899 -2.6487
lowerneck -6.31035 10.689 19.2792
upperneck 30.653 15.5256 -12.0088
head 14.0854 7.70379 -5.72043
rclavicle -3.06128e-014 -7.95139e-015
rhumerus 11.9919 24.3063 -65.2765
rradius 130.596
rwrist -12.6515
rhand -28.5555 7.91801
rfingers 7.12502
rthumb -1.92238 -22.0531
lclavicle -3.06128e-014 -7.95139e-015
lhumerus 7.52309 -10.5859 54.7597
lradius 137.65
lwrist -0.276643
lhand -26.8427 1.1693
lfingers 7.12502
lthumb -0.268185 31.1489
rfemur -5.10327 10.1103 18.4446
rtibia 25.1885
rfoot -32.0568 -25.6214
rtoes -8.27767
lfemur -53.3509 19.4021 -6.76917
ltibia 52.4941
lfoot -5.31879 10.5481
ltoes 6.97961
3408
root -0.22489 14.6161 -1.17988 19.2294 -34.2911 -8.57989
lowerback -4.6442 0.0944959 4.34218
upperback -7.79873 -0.0253895 -0.170996
thorax -5.51231 -0.305616 -2.60283
lowerneck -6.20704 10.7064 19.2282
upperneck 30.7517 15.6099 -12.0753
head 14.1266 7.73163 -5.73375
rclavicle -3.8266e-015 7.95139e-016
rhumerus 11.9138 24.2502 -65.1356
rradius 130.676
rwrist -12.6836
rhand -28.5313 7.94739
rfingers 7.12502
rthumb -1.89904 -22.0239
lclavicle -3.8266e-015 7.95139e-016
lhumerus 7.30662 -10.6888 54.8942
lradius 137.769
lwrist -0.412085
lhand -26.7744 0.990568
lfingers 7.12502
lthumb -0.202198 30.9702
rfemur -5.17588 9.82087 18.7452
rtibia 25.0654
rfoot -31.8861 -25.5058
rtoes -8.22689
lfemur -53.3833 19.1874 -6.064
ltibia 52.3191
lfoot -4.22949 9.58022
ltoes 6.09439
3409
root -0.245788 14.6308 -1.23356 19.2903 -34.0217 -8.64481
lowerback -4.76209 -0.0469261 4.47402
upperback -7.84824 -0.217662 -0.0396205
thorax -5.51505 -0.406638 -2.53915
lowerneck -6.12846 10.7239 19.1723
upperneck 30.8655 15.6909 -12.136
head 14.1784 7.75713 -5.74402
rclavicle -1.38652e-014 8.74653e-015
rhumerus 11.8266 24.1782 -64.9956
rradius 130.774
rwrist -12.7608
rhand -28.4972 7.94774
rfingers 7.12502
rthumb -1.86607 -22.0238
lclavicle -1.38652e-014 8.74653e-015
lhumerus 7.10577 -10.77 55.0272
lradius 137.901
lwrist -0.517089
lhand -26.7089 0.847741
lfingers 7.12502
lthumb -0.138922 30.8274
rfemur -5.258 9.57811 19.0477
rtibia 24.9515
rfoot -31.7573 -25.4557
rtoes -8.03077
lfemur -53.4792 19.0614 -5.47682
ltibia 52.1441
lfoot -3.13857 8.67023
ltoes 5.23361
3410
root -0.265291 14.6452 -1.28318 19.3334 -33.7622 -8.68142
lowerback -4.8891 -0.183292 4.57048
upperback -7.89366 -0.403548 0.0929623
thorax -5.50708 -0.502115 -2.45482
lowerneck -6.07317 10.7425 19.1134
upperneck 30.9888 15.7698 -12.1923
head 14.2385 7.78092 -5.7516
rclavicle 3.10104e-014 2.38542e-015
rhumerus 11.7442 24.0906 -64.856
rradius 130.893
rwrist -12.8925
rhand -28.4539 7.89435
rfingers 7.12502
rthumb -1.82431 -22.0776
lclavicle 3.10104e-014 2.38542e-015
lhumerus 6.92007 -10.822 55.1576
lradius 138.043
lwrist -0.601262
lhand -26.6497 0.750169
lfingers 7.12502
lthumb -0.081721 30.7299
rfemur -5.33842 9.37903 19.3263
rtibia 24.8539
rfoot -31.6445 -25.4723
rtoes -7.76624
lfemur -53.5966 19.0224 -5.03607
ltibia 51.9641
lfoot -2.11226 7.83892
ltoes 4.28908
3411
root -0.283504 14.6596 -1.32805 19.3441 -33.5354 -8.69152
lowerback -5.00799 -0.311996 4.63007
upperback -7.93531 -0.57844 0.22777
thorax -5.49769 -0.589798 -2.3479
lowerneck -6.03087 10.7603 19.05
upperneck 31.1244 15.8472 -12.2473
head 14.3065 7.80315 -5.75821
rclavicle -1.2424e-015 3.49861e-014
rhumerus 11.67 24.0185 -64.7162
rradius 131.017
rwrist -13.0624
rhand -28.4668 7.84254
rfingers 7.12502
rthumb -1.83673 -22.1293
lclavicle -1.2424e-015 3.49861e-014
lhumerus 6.74324 -10.8084 55.2892
lradius 138.17
lwrist -0.62533
lhand -26.5702 0.5285
lfingers 7.12502
lthumb -0.00494366 30.5082
rfemur -5.40116 9.22938 19.5736
rtibia 24.7738
rfoot -31.525 -25.5488
rtoes -7.49919
lfemur -53.6893 19.0554 -4.72569
ltibia 51.7745
lfoot -1.21318 7.13604
ltoes 3.33105
